<svg xmlns="http://www.w3.org/2000/svg" width="15" height="16" viewBox="0 0 15 16" fill="none">
  <path d="M8.25291 8.70793C11.3549 5.38312 13.5351 2.36849 13.1223 1.97456C12.7096 1.58063 9.86034 3.95657 6.75832 7.28138C3.65629 10.6062 1.47618 13.6208 1.8889 14.0148C2.30162 14.4087 5.15089 12.0327 8.25291 8.70793Z" fill="#EBFF57"/>
  <path d="M6.30767 6.6417C8.98074 3.77666 10.8594 1.17889 10.5037 0.839416C10.148 0.499945 7.69277 2.54733 5.0197 5.41237C2.34664 8.27741 0.468009 10.8752 0.823672 11.2147C1.17934 11.5541 3.63461 9.50674 6.30767 6.6417Z" fill="#EBFF57"/>
  <path d="M4.57494 4.80563C6.54863 2.69019 7.93585 0.772203 7.67339 0.521685C7.41092 0.271167 5.59815 1.78298 3.62446 3.89842C1.65077 6.01386 0.263553 7.93184 0.526021 8.18236C0.788489 8.43288 2.60125 6.92107 4.57494 4.80563Z" fill="#EBFF57"/>
  <path d="M3.14946 3.29804C4.52368 1.82512 5.4897 0.489803 5.30711 0.31553C5.12452 0.141256 3.86248 1.19402 2.48825 2.66694C1.11403 4.13986 0.148016 5.47517 0.330602 5.64944C0.513188 5.82372 1.77523 4.77096 3.14946 3.29804Z" fill="#EBFF57"/>
  <path d="M9.98053 10.57C12.6536 7.70496 14.5322 5.10718 14.1766 4.76771C13.8209 4.42824 11.3656 6.47563 8.69256 9.34067C6.01949 12.2057 4.14086 14.8035 4.49652 15.143C4.85219 15.4824 7.30746 13.435 9.98053 10.57Z" fill="#EBFF57"/>
  <path d="M11.3747 12.0828C13.3484 9.96735 14.7357 8.04937 14.4732 7.79885C14.2107 7.54833 12.398 9.06014 10.4243 11.1756C8.45058 13.291 7.06336 15.209 7.32583 15.4595C7.5883 15.71 9.40106 14.1982 11.3747 12.0828Z" fill="#EBFF57"/>
  <path d="M12.5118 13.3145C13.886 11.8416 14.852 10.5063 14.6694 10.332C14.4868 10.1577 13.2248 11.2105 11.8506 12.6834C10.4763 14.1563 9.51032 15.4916 9.69291 15.6659C9.87549 15.8402 11.1375 14.7874 12.5118 13.3145Z" fill="#EBFF57"/>
</svg>