<svg xmlns="http://www.w3.org/2000/svg" width="80" height="44" viewBox="0 0 80 44" fill="none">
  <path d="M70.7162 27.1059C70.7994 27.1638 70.9965 27.1059 71.1207 27.1266L72.2188 16.7937C73.0853 11.7776 80.0018 12.3708 79.7663 17.6187C79.6101 21.1007 78.8281 26.8645 78.0589 30.2582C77.0133 34.8659 73.0699 39.555 68.4125 36.651C63.0254 33.2918 60.6257 19.0989 58.1453 12.9199C57.8163 12.1018 57.4285 11.1072 56.8423 10.4808C55.9413 16.4957 55.734 22.6513 54.8214 28.662C54.3786 31.5756 53.5057 35.7888 51.6691 38.0292C49.2309 41.0035 45.7675 40.9704 43.0337 38.461C38.366 34.1761 35.9406 20.6454 33.4947 14.2608C33.4013 14.0153 33.0481 12.862 32.6961 13.2331C32.5412 15.1851 32.1637 17.1068 31.9397 19.0493C31.2729 24.8172 31.1897 35.3184 28.2024 40.0006C25.9486 43.5323 22.1025 44.1034 19.0359 41.3581C14.5973 37.385 11.9812 24.5716 9.93087 18.4933C9.80032 18.1057 9.11686 16.0487 8.89929 15.9894C8.67659 15.9287 8.58955 16.1729 8.55243 16.3688C7.92785 19.5956 7.98545 23.3176 7.42742 26.5941C6.89499 30.1437 1.89834 30.9452 0.417514 27.7943C-0.131555 26.6258 -0.0022837 24.9883 0.0565908 23.6722C0.235774 19.6411 1.08433 12.6509 3.03487 9.2213C5.00845 5.75034 8.98632 4.41079 12.131 7.03884C16.9216 11.0423 19.3789 24.3357 21.6622 30.4996C21.8107 30.8997 22.3303 32.4103 22.4865 32.6227C22.6426 32.8352 22.7425 32.7966 22.9703 32.7841C23.7101 27.0976 24.103 21.3435 24.8376 15.6583C25.4225 11.1334 26.5514 3.38715 31.9 2.8036C37.7836 2.16073 40.3523 10.7733 41.8933 15.4155C43.2334 19.4507 44.3046 23.6556 45.7688 27.6384C45.9902 28.2413 46.2705 29.149 46.5265 29.6815C46.7889 30.2264 47.0807 29.7408 47.128 29.3587C47.864 23.4363 48.3209 17.4573 49.1362 11.5472C49.698 7.4734 50.6029 1.53303 54.9814 0.254183C60.1995 -1.27023 63.2085 4.38043 64.816 8.71776C66.7076 13.8207 67.9939 19.3031 69.7435 24.4682C69.8626 24.8213 70.6062 27.0314 70.7162 27.1086V27.1059Z" fill="#D7FF81"/>
</svg>