<svg xmlns="http://www.w3.org/2000/svg" width="46" height="46" viewBox="0 0 46 46" fill="none">
  <path d="M20.5586 0.07257C8.2932 0.997285 -1.03854 13.0046 0.0930037 25.0819C2.09066 46.3644 29.6528 53.7341 41.7785 36.1785C53.0939 19.7998 40.1859 -1.39857 20.5586 0.07257ZM11.6459 11.4494C11.6599 10.8469 11.7577 10.7628 12.4282 10.7348C13.8531 10.6508 15.1942 10.959 16.4934 11.4914C17.9323 12.0799 19.2314 12.8925 20.2791 13.9293C20.7821 14.4337 22.0254 15.6947 22.7797 17.6282C22.8775 17.8663 22.9474 18.0765 23.0032 18.2166C23.0591 18.0765 23.115 17.8663 23.2267 17.6282C23.9951 15.6947 25.2244 14.4477 25.7273 13.9293C26.775 12.9065 28.0602 12.0799 29.5131 11.4914C30.7983 10.973 32.1534 10.6788 33.5783 10.7348C34.2348 10.7628 34.3466 10.8469 34.3606 11.4494V12.8084C34.2907 14.5037 33.9135 16.143 33.1871 17.7122C32.5864 18.9732 31.7482 20.066 30.7424 21.1169C30.1976 21.6913 29.5969 22.1817 28.9403 22.616C28.3257 23.0223 26.9008 23.9611 24.8193 24.3253C24.0649 24.4514 23.4223 24.4935 23.0032 24.4935C22.5702 24.4935 21.9415 24.4514 21.2012 24.3253C19.1057 23.947 17.7087 23.0223 17.0801 22.616C16.4375 22.1957 15.8508 21.6913 15.278 21.1169C14.2862 20.0941 13.4201 18.9872 12.8333 17.7122C12.1069 16.143 11.7297 14.5037 11.6599 12.8084V11.4494H11.6459ZM34.3606 26.0627C34.2907 27.758 33.9135 29.3973 33.1871 30.9665C32.5864 32.2274 31.7482 33.3203 30.7424 34.3711C30.1976 34.9455 29.5969 35.4359 28.9403 35.8703C28.3257 36.2766 26.9008 37.2153 24.8193 37.5796C24.0649 37.7057 23.4223 37.7477 23.0032 37.7477C22.5702 37.7477 21.9415 37.7057 21.2012 37.5796C19.1057 37.2013 17.7087 36.2766 17.0801 35.8703C16.4375 35.4499 15.8508 34.9455 15.278 34.3711C14.2862 33.3483 13.4201 32.2415 12.8333 30.9665C12.1069 29.3973 11.7297 27.758 11.6599 26.0627V24.7036C11.6738 24.1012 11.7717 24.0171 12.4422 23.9891C13.8671 23.905 15.2082 24.2132 16.5073 24.7457C17.9462 25.3341 19.2454 26.1467 20.2931 27.1835C20.796 27.6879 22.0393 28.9489 22.7937 30.8824C22.8915 31.1206 22.9613 31.3308 23.0172 31.4709C23.0731 31.3308 23.129 31.1206 23.2407 30.8824C24.0091 28.9489 25.2384 27.7019 25.7413 27.1835C26.789 26.1608 28.0742 25.3341 29.5271 24.7457C30.8123 24.2273 32.1673 23.933 33.5922 23.9891C34.2488 24.0171 34.3606 24.1012 34.3745 24.7036V26.0627H34.3606Z" fill="#FFDD00"/>
</svg>