<svg xmlns="http://www.w3.org/2000/svg" width="17" height="16" viewBox="0 0 17 16" fill="none">
  <path d="M12.8554 3.14286C12.0131 2.60638 10.9372 2.22237 9.99013 2.74443C9.18236 3.1896 8.84331 4.0983 8.43591 4.86981L8.38291 4.87287L1.92293 0C1.89402 0 1.87518 0.00698996 1.8524 0.0235911C1.79545 0.065094 1.69383 0.556575 1.67148 0.662298C1.31228 2.35998 1.44808 4.15465 2.47663 5.59502C2.80561 6.05461 3.19986 6.42814 3.64536 6.77327L0.0458662 7.96112C-0.00363396 7.97903 -0.0115189 8.05024 0.0147643 8.08913C0.384482 8.35824 0.734049 8.62429 1.14275 8.83705C2.24271 9.40979 3.47671 9.67279 4.71946 9.64002C4.7475 9.65881 4.73567 9.67366 4.73217 9.69813C4.70851 9.85715 4.652 10.024 4.6301 10.1896C4.51227 11.083 4.65113 12.038 5.03399 12.8532C5.07779 12.9471 5.193 13.2106 5.2885 13.2385C5.44532 13.2844 5.4129 13.0625 5.5395 13.0428C5.82161 13.7169 6.15497 14.2066 6.39809 14.5194C6.84753 15.0974 7.52082 15.9633 8.2988 15.9935H9.57792H10.7261C11.6854 15.9943 11.6766 16.0079 11.8742 15.9935C12.1519 15.9729 12.4275 15.9533 12.735 15.8502C12.9343 15.7833 13.6466 15.571 14.0264 14.8484C14.3098 14.3102 14.3124 13.5806 14.3133 13.2748V11.4142C13.866 11.4098 12.9698 11.4618 12.0065 11.969C11.352 12.3137 10.6722 12.6719 10.3546 13.4089C10.1207 13.9515 10.1737 14.4902 9.87668 15.315C9.86616 13.8659 9.54945 12.7086 9.1644 12.1263C9.09168 12.0162 8.77103 11.4635 8.16476 10.9367C8.13716 10.9131 7.87258 10.7335 7.91332 10.6981H8.38116C9.21127 10.6981 9.95071 9.68939 10.2608 9.02229C10.7388 7.99476 11.2114 6.87768 11.7437 5.88117C12.4205 4.61468 13.6378 3.61424 14.9664 3.0865C15.3396 2.9384 15.7795 2.84142 16.136 2.6824C16.1676 2.66798 16.2118 2.65968 16.221 2.61949C15.0733 2.64308 13.951 2.80909 12.8554 3.14242V3.14286Z" fill="#EBFF57"/>
</svg>